<svg width="315" height="78" viewBox="0 0 315 78" fill="none" xmlns="http://www.w3.org/2000/svg">
<path d="M82.9284 2.84351C81.2557 5.82685 79.242 8.30015 76.9543 10.3612V10.3647C72.3331 14.5253 66.6154 17.0021 60.4304 18.6021C59.3375 18.8886 58.234 19.1401 57.1165 19.3672C57.1165 19.3672 57.113 19.3672 57.113 19.3706C33.0758 24.3522 3.92187 18.679 4.21707 46.2277C4.24167 48.46 4.45603 50.9088 4.88477 53.6022C5.39081 49.7874 6.50482 46.7971 8.11784 44.4566V44.4531C8.90854 43.2968 9.81872 42.3011 10.8308 41.4348C28.0329 26.7207 75.3237 50.3534 82.9284 2.84351Z" fill="white"/>
<path d="M34.1371 49.1795C32.893 49.1131 31.7052 49.0573 30.5807 49.0538C26.1141 49.0363 14.9951 50.493 13.9409 60.3967C13.5613 63.9949 14.4434 67.0446 17.2056 69.7066C19.3001 71.7257 22.4769 73.5213 27.0032 75.1562C24.9579 74.234 19.9607 68.9031 22.0693 65.0255C22.1466 64.8822 22.2274 64.746 22.3152 64.6132C22.4101 64.4665 22.5015 64.3233 22.6034 64.1905C22.6878 64.0718 22.7756 63.9635 22.874 63.8587C22.881 63.8447 22.8916 63.8342 22.8986 63.8272C22.9865 63.7224 23.0778 63.6211 23.1762 63.5268C23.2817 63.4185 23.3941 63.3137 23.5066 63.2159C23.6014 63.132 23.7034 63.0482 23.8018 62.9748C23.9318 62.8735 24.0688 62.7757 24.2129 62.6814C24.3324 62.601 24.4589 62.5242 24.5819 62.4543C24.5819 62.4473 24.5889 62.4438 24.5995 62.4473C24.7225 62.374 24.8525 62.3041 24.9825 62.2447C25.088 62.1923 25.1934 62.1399 25.3023 62.098C25.3586 62.0701 25.4183 62.0491 25.478 62.0212C25.587 61.9792 25.6959 61.9373 25.8049 61.8954C25.9454 61.843 26.093 61.7976 26.2406 61.7557C26.3882 61.7102 26.5323 61.6718 26.6834 61.6369C26.824 61.5985 26.961 61.567 27.1086 61.5356C27.2738 61.5076 27.4425 61.4762 27.6112 61.4517C27.7693 61.4238 27.9274 61.4028 28.0926 61.3854C28.2718 61.3644 28.4511 61.3504 28.6268 61.3365C28.9887 61.305 29.3577 61.291 29.7302 61.291C29.7408 61.291 29.7443 61.2875 29.7548 61.291C29.9305 61.291 30.1133 61.291 30.2925 61.2945C30.4823 61.3015 30.6756 61.3085 30.8653 61.319C30.897 61.319 30.9321 61.319 30.9637 61.3225C31.2976 61.3399 31.6349 61.3644 31.9723 61.3993C32.1867 61.4203 32.4081 61.4413 32.6224 61.4657C33.9016 61.6089 35.2054 61.8395 36.4986 62.105C37.089 62.2238 37.6759 62.3425 38.2663 62.4578C45.3966 63.8237 52.9311 64.2814 61.692 54.9925L61.699 54.989C63.8954 52.6624 66.1726 49.7175 68.5342 46.025C68.5342 46.025 68.5342 46.0215 68.5412 46.0215C70.3826 43.1465 72.2768 39.8068 74.2377 35.9536C61.4847 52.072 45.4809 49.8223 34.1371 49.1795Z" fill="white"/>
<path d="M81.1116 63.946V35.6707H99.9021V38.8566H84.7172V48.2957H97.4983V51.2825H84.7172V63.946H81.1116Z" fill="white"/>
<path d="M104.471 63.946V35.6707H108.076V63.946H104.471Z" fill="white"/>
<path d="M118.489 42.2838V63.9497H114.883V35.6743H117.926L135.315 57.7769V35.7127H138.92V63.9497H135.635L118.489 42.2838Z" fill="white"/>
<path d="M162.437 41.6059C162.118 41.2356 161.689 40.8758 161.155 40.5299C160.621 40.1841 160.02 39.8732 159.352 39.5937C158.684 39.3142 157.957 39.0907 157.17 38.916C156.382 38.7448 155.56 38.6575 154.706 38.6575C152.517 38.6575 150.9 39.0697 149.86 39.8872C148.82 40.7081 148.296 41.833 148.296 43.2617C148.296 44.2678 148.563 45.0608 149.098 45.6442C149.632 46.2276 150.454 46.7027 151.561 47.073C152.668 47.4433 154.077 47.8276 155.789 48.2258C157.764 48.6485 159.475 49.1655 160.916 49.7734C162.357 50.3812 163.467 51.1952 164.24 52.2153C165.013 53.2353 165.403 54.5908 165.403 56.285C165.403 57.637 165.143 58.8072 164.623 59.7994C164.103 60.7915 163.376 61.6124 162.441 62.2622C161.506 62.912 160.41 63.3871 159.155 63.691C157.901 63.9949 156.537 64.1486 155.068 64.1486C153.627 64.1486 152.218 63.9949 150.841 63.691C149.463 63.3871 148.163 62.9399 146.936 62.3565C145.706 61.7731 144.557 61.043 143.492 60.1662L145.214 57.1409C145.64 57.5916 146.195 58.0387 146.877 58.4754C147.558 58.9121 148.331 59.3173 149.199 59.6911C150.067 60.0649 151.009 60.3618 152.025 60.5889C153.04 60.8159 154.081 60.9277 155.149 60.9277C157.177 60.9277 158.755 60.5644 159.876 59.8378C160.997 59.1112 161.559 58.0492 161.559 56.6483C161.559 55.5899 161.246 54.741 160.617 54.1052C159.988 53.4694 159.06 52.9419 157.834 52.5157C156.604 52.093 155.11 51.6668 153.346 51.2441C151.424 50.769 149.807 50.245 148.5 49.6756C147.193 49.1062 146.209 48.3586 145.555 47.4328C144.902 46.5071 144.575 45.3019 144.575 43.8172C144.575 42.0181 145.014 40.495 145.896 39.2514C146.778 38.0077 147.994 37.068 149.54 36.4322C151.09 35.7964 152.84 35.4785 154.787 35.4785C156.07 35.4785 157.265 35.6113 158.372 35.8768C159.479 36.1423 160.515 36.5126 161.475 36.9911C162.437 37.4697 163.316 38.0392 164.117 38.7029L162.437 41.6059Z" fill="white"/>
<path d="M181.868 64.1488C179.597 64.1488 177.689 63.7575 176.139 62.975C174.59 62.1925 173.349 61.1305 172.414 59.7891C171.48 58.4476 170.798 56.928 170.373 55.2302C169.944 53.5324 169.733 51.7788 169.733 49.9727V35.6743H173.339V49.9727C173.339 51.3526 173.479 52.701 173.76 54.0145C174.041 55.328 174.502 56.5053 175.141 57.5393C175.781 58.5734 176.649 59.3978 177.745 60.0091C178.842 60.6205 180.202 60.9244 181.832 60.9244C183.488 60.9244 184.865 60.6135 185.958 59.9882C187.055 59.3629 187.923 58.528 188.562 57.4799C189.202 56.4319 189.662 55.2582 189.943 53.9551C190.224 52.6556 190.365 51.3281 190.365 49.9727V35.6743H193.971V49.9727C193.971 51.8836 193.749 53.6966 193.31 55.4084C192.871 57.1201 192.168 58.6293 191.208 59.9288C190.245 61.2283 188.998 62.2589 187.462 63.0134C185.919 63.768 184.057 64.1488 181.868 64.1488Z" fill="white"/>
<path d="M200.377 63.946V35.6707H212.557C213.812 35.6707 214.961 35.9292 216.001 36.4462C217.041 36.9632 217.952 37.6549 218.725 38.5178C219.498 39.3806 220.099 40.3483 220.527 41.4242C220.953 42.5002 221.167 43.5936 221.167 44.708C221.167 46.0075 220.921 47.2442 220.426 48.411C219.93 49.5778 219.238 50.5769 218.342 51.3978C217.445 52.2222 216.398 52.7917 215.196 53.1096L222.088 63.9425H218.001L211.51 53.7873H203.979V63.9425H200.377V63.946ZM203.983 50.6048H212.596C213.583 50.6048 214.444 50.3323 215.179 49.7874C215.913 49.2424 216.486 48.5193 216.901 47.618C217.315 46.7167 217.523 45.7455 217.523 44.7115C217.523 43.6495 217.284 42.6749 216.802 41.7841C216.321 40.8932 215.695 40.1841 214.919 39.6531C214.142 39.1221 213.288 38.8566 212.353 38.8566H203.979V50.6048H203.983Z" fill="white"/>
<path d="M235.35 35.6707H238.394L250.012 63.946H246.167L242.976 55.6632H230.743L227.538 63.946H223.694L235.35 35.6707ZM241.904 52.8755L236.872 39.8138L231.819 52.8755H241.904Z" fill="white"/>
<path d="M270.204 35.6707H273.248L284.866 63.946H281.021L277.83 55.6632H265.597L262.392 63.946H258.548L270.204 35.6707ZM276.755 52.8755L271.723 39.8138L266.669 52.8755H276.755Z" fill="white"/>
<path d="M299.088 64.1487C297.218 64.1487 295.475 63.7435 293.859 62.933C292.242 62.1225 290.833 61.0361 289.631 59.6667C288.429 58.3008 287.494 56.7602 286.827 55.0485C286.159 53.3367 285.825 51.5621 285.825 49.7315C285.825 47.8207 286.159 46.0076 286.827 44.2959C287.494 42.5841 288.422 41.0645 289.61 39.737C290.798 38.4095 292.2 37.3685 293.816 36.6104C295.433 35.8524 297.186 35.4751 299.084 35.4751C301.836 35.4751 304.106 36.0445 305.895 37.1868C307.683 38.3292 309.033 39.8139 309.94 41.6479L307.174 43.5588C306.345 41.9134 305.209 40.6907 303.769 39.8942C302.328 39.0977 300.736 38.6995 299 38.6995C297.559 38.6995 296.248 39.0034 295.074 39.6147C293.897 40.2261 292.892 41.054 292.049 42.1055C291.209 43.1535 290.566 44.3413 290.126 45.6688C289.687 46.9962 289.466 48.3761 289.466 49.8119C289.466 51.3245 289.712 52.7533 290.207 54.0913C290.703 55.4327 291.402 56.6135 292.312 57.637C293.219 58.6606 294.277 59.4641 295.479 60.0475C296.68 60.6309 297.977 60.9243 299.365 60.9243C300.996 60.9243 302.542 60.5121 304.011 59.6911C305.48 58.8702 306.868 57.6091 308.179 55.9078V59.6108C305.617 62.6326 302.584 64.1487 299.088 64.1487ZM307.74 52.5577H301.611V49.8503H310.786V63.9496H307.743V52.5577H307.74Z" fill="white"/>
</svg>
