<svg version="1.1" id="Calque_1" xmlns="http://www.w3.org/2000/svg" x="0" y="0" viewBox="0 0 896.36 223.28" style="enable-background:new 0 0 896.36 223.28" xml:space="preserve"><style>.st0{fill:#185687}.st1{fill:#6a6964}</style><path class="st0" d="M235.98 8.14c-4.76 8.54-10.49 15.62-17 21.52v.01c-13.15 11.91-29.42 19-47.02 23.58-3.11.82-6.25 1.54-9.43 2.19 0 0-.01 0-.01.01C94.12 69.71 11.16 53.47 12 132.33c.07 6.39.68 13.4 1.9 21.11 1.44-10.92 4.61-19.48 9.2-26.18v-.01c2.25-3.31 4.84-6.16 7.72-8.64C79.77 76.49 214.34 144.14 235.98 8.14M97.14 140.78c-3.54-.19-6.92-.35-10.12-.36-12.71-.05-44.35 4.12-47.35 32.47-1.08 10.3 1.43 19.03 9.29 26.65 5.96 5.78 15 10.92 27.88 15.6-5.82-2.64-20.04-17.9-14.04-29 .22-.41.45-.8.7-1.18.27-.42.53-.83.82-1.21.24-.34.49-.65.77-.95.02-.04.05-.07.07-.09.25-.3.51-.59.79-.86.3-.31.62-.61.94-.89.27-.24.56-.48.84-.69.37-.29.76-.57 1.17-.84.34-.23.7-.45 1.05-.65 0-.02.02-.03.05-.02.35-.21.72-.41 1.09-.58.3-.15.6-.3.91-.42.16-.08.33-.14.5-.22l.93-.36c.4-.15.82-.28 1.24-.4.42-.13.83-.24 1.26-.34.4-.11.79-.2 1.21-.29.47-.08.95-.17 1.43-.24.45-.08.9-.14 1.37-.19.51-.06 1.02-.1 1.52-.14 1.03-.09 2.08-.13 3.14-.13.03 0 .04-.01.07 0 .5 0 1.02 0 1.53.01.54.02 1.09.04 1.63.07.09 0 .19 0 .28.01.95.05 1.91.12 2.87.22.61.06 1.24.12 1.85.19 3.64.41 7.35 1.07 11.03 1.83 1.68.34 3.35.68 5.03 1.01 20.29 3.91 41.73 5.22 66.66-21.37l.02-.01c6.25-6.66 12.73-15.09 19.45-25.66 0 0 0-.01.02-.01 5.24-8.23 10.63-17.79 16.21-28.82-36.29 46.14-81.83 39.7-114.11 37.86"/><path class="st1" d="M230.81 183.05v-80.94h53.47v9.12h-43.21v27.02h36.37v8.55h-36.37v36.25h-10.26zM297.28 183.05v-80.94h10.26v80.94h-10.26zM337.17 121.04v62.02h-10.26v-80.94h8.66l49.48 63.27v-63.16h10.26v80.83h-9.35l-48.79-62.02zM462.23 119.1c-.91-1.06-2.13-2.09-3.65-3.08-1.52-.99-3.23-1.88-5.13-2.68-1.9-.8-3.97-1.44-6.21-1.94a32.74 32.74 0 0 0-7.01-.74c-6.23 0-10.83 1.18-13.79 3.52-2.96 2.35-4.45 5.57-4.45 9.66 0 2.88.76 5.15 2.28 6.82 1.52 1.67 3.86 3.03 7.01 4.09s7.16 2.16 12.03 3.3c5.62 1.21 10.49 2.69 14.59 4.43 4.1 1.74 7.26 4.07 9.46 6.99 2.2 2.92 3.31 6.8 3.31 11.65 0 3.87-.74 7.22-2.22 10.06-1.48 2.84-3.55 5.19-6.21 7.05-2.66 1.86-5.78 3.22-9.35 4.09-3.57.87-7.45 1.31-11.63 1.31-4.1 0-8.11-.44-12.03-1.31-3.92-.87-7.62-2.15-11.11-3.82-3.5-1.67-6.77-3.76-9.8-6.27l4.9-8.66c1.21 1.29 2.79 2.57 4.73 3.82s4.14 2.41 6.61 3.48c2.47 1.07 5.15 1.92 8.04 2.57 2.89.65 5.85.97 8.89.97 5.77 0 10.26-1.04 13.45-3.12 3.19-2.08 4.79-5.12 4.79-9.13 0-3.03-.89-5.46-2.68-7.28-1.79-1.82-4.43-3.33-7.92-4.55-3.5-1.21-7.75-2.43-12.77-3.64-5.47-1.36-10.07-2.86-13.79-4.49-3.72-1.63-6.52-3.77-8.38-6.42-1.86-2.65-2.79-6.1-2.79-10.35 0-5.15 1.25-9.51 3.76-13.07s5.97-6.25 10.37-8.07c4.41-1.82 9.39-2.73 14.93-2.73 3.65 0 7.05.38 10.2 1.14 3.15.76 6.1 1.82 8.83 3.19 2.74 1.37 5.24 3 7.52 4.9l-4.78 8.31zM517.52 183.63c-6.46 0-11.89-1.12-16.3-3.36-4.41-2.24-7.94-5.28-10.6-9.12-2.66-3.84-4.6-8.19-5.81-13.05-1.22-4.86-1.82-9.88-1.82-15.05v-40.93h10.26v40.93c0 3.95.4 7.81 1.2 11.57.8 3.76 2.11 7.13 3.93 10.09 1.82 2.96 4.29 5.32 7.41 7.07s6.99 2.62 11.63 2.62c4.71 0 8.63-.89 11.74-2.68 3.12-1.79 5.59-4.18 7.41-7.18 1.82-3 3.13-6.36 3.93-10.09.8-3.72 1.2-7.52 1.2-11.4v-40.93h10.26v40.93c0 5.47-.63 10.66-1.88 15.56s-3.25 9.22-5.98 12.94c-2.74 3.72-6.29 6.67-10.66 8.83-4.39 2.16-9.69 3.25-15.92 3.25zM570.19 183.05v-80.94h34.66c3.57 0 6.84.74 9.8 2.22 2.96 1.48 5.55 3.46 7.75 5.93 2.2 2.47 3.91 5.24 5.13 8.32 1.21 3.08 1.82 6.21 1.82 9.4 0 3.72-.7 7.26-2.11 10.6s-3.38 6.2-5.93 8.55c-2.55 2.36-5.53 3.99-8.95 4.9l19.61 31.01h-11.63l-18.47-29.07h-21.43v29.07h-10.25zm10.26-38.19h24.51c2.81 0 5.26-.78 7.35-2.34 2.09-1.56 3.72-3.63 4.9-6.21 1.18-2.58 1.77-5.36 1.77-8.32 0-3.04-.68-5.83-2.05-8.38-1.37-2.55-3.15-4.58-5.36-6.1-2.21-1.52-4.64-2.28-7.3-2.28h-23.83v33.63zM669.71 102.11h8.66l33.06 80.94h-10.94l-9.08-23.71H656.6l-9.12 23.71h-10.94l33.17-80.94zm18.65 49.25-14.32-37.39-14.38 37.39h28.7zM768.89 102.11h8.66l33.06 80.94h-10.94l-9.08-23.71h-34.81l-9.12 23.71h-10.94l33.17-80.94zm18.64 49.25-14.32-37.39-14.38 37.39h28.7zM851.08 183.63c-5.32 0-10.28-1.16-14.88-3.48-4.6-2.32-8.61-5.43-12.03-9.35-3.42-3.91-6.08-8.32-7.98-13.22a41.77 41.77 0 0 1-2.85-15.22c0-5.47.95-10.66 2.85-15.56 1.9-4.9 4.54-9.25 7.92-13.05 3.38-3.8 7.37-6.78 11.97-8.95 4.6-2.17 9.59-3.25 14.99-3.25 7.83 0 14.29 1.63 19.38 4.9 5.09 3.27 8.93 7.52 11.51 12.77l-7.87 5.47c-2.36-4.71-5.59-8.21-9.69-10.49-4.1-2.28-8.63-3.42-13.57-3.42-4.1 0-7.83.87-11.17 2.62-3.35 1.75-6.21 4.12-8.61 7.13-2.39 3-4.22 6.4-5.47 10.2-1.25 3.8-1.88 7.75-1.88 11.86 0 4.33.7 8.42 2.11 12.25 1.41 3.84 3.4 7.22 5.99 10.15 2.58 2.93 5.59 5.23 9.01 6.9s7.11 2.51 11.06 2.51c4.64 0 9.04-1.18 13.22-3.53 4.18-2.35 8.13-5.96 11.86-10.83v10.6c-7.29 8.65-15.92 12.99-25.87 12.99zm24.62-33.18h-17.44v-7.75h26.11v40.36h-8.66v-32.61z"/></svg>