<svg width="8" height="11" viewBox="0 0 8 11" fill="none" xmlns="http://www.w3.org/2000/svg">
<path d="M1.17084 10.4292C1.025 10.2938 0.952087 10.1334 0.952087 9.94819C0.952087 9.76294 1.025 9.60278 1.17084 9.46773L5.44375 5.50002L1.15625 1.51877C1.02014 1.39238 0.952087 1.2344 0.952087 1.04481C0.952087 0.855229 1.025 0.692729 1.17084 0.557312C1.31667 0.421895 1.48934 0.354187 1.68884 0.354187C1.88834 0.354187 2.06081 0.421895 2.20625 0.557312L7.10626 5.12085C7.16459 5.17502 7.206 5.2337 7.2305 5.2969C7.255 5.36009 7.26706 5.4278 7.26667 5.50002C7.26667 5.57224 7.25442 5.63995 7.22992 5.70315C7.20542 5.76634 7.1642 5.82502 7.10626 5.87919L2.19167 10.4427C2.05556 10.5691 1.88775 10.6323 1.68825 10.6323C1.48875 10.6323 1.31628 10.5646 1.17084 10.4292Z" fill="white"/>
</svg>
