<svg width="30" height="30" viewBox="0 0 30 30" fill="none" xmlns="http://www.w3.org/2000/svg">
<path d="M6.97278 5.41239C6.99875 5.2408 7.03048 5.0613 7.06797 4.87389C7.10546 4.68649 7.14543 4.50824 7.18787 4.33914L13.2108 5.25073L13.4613 10.5544L10.0236 13.0882C10.6156 14.5118 11.3696 15.8504 12.2857 17.104C13.2017 18.3575 14.223 19.4378 15.3495 20.3448L18.7536 17.8586L23.783 19.594L22.8715 25.6169C22.6947 25.6253 22.5119 25.6151 22.3231 25.5866L21.7826 25.5048C19.5691 25.1697 17.4857 24.35 15.5326 23.0454C13.5796 21.7409 11.911 20.1544 10.5271 18.2859C9.14239 16.4172 8.12006 14.3581 7.46007 12.1083C6.80008 9.85862 6.63765 7.62664 6.97278 5.41239Z" fill="#185687"/>
</svg>
