<svg width="94" height="71" viewBox="0 0 94 71" fill="none" xmlns="http://www.w3.org/2000/svg">
<path d="M60.8948 24.0565C62.8244 26.519 62.1041 30.8936 59.47 32.5818C59.165 32.7767 58.9284 33.2166 58.8391 33.5853C58.1871 36.2427 57.4116 38.829 55.4531 40.8833C55.248 41.0967 55.1771 41.5128 55.1797 41.8341C55.1955 43.5013 55.3216 45.1684 55.2822 46.8329C55.2401 48.7029 56.1024 50.1146 57.5614 51.0206C59.4831 52.2136 61.5389 53.2066 63.5894 54.1731C66.1998 55.4031 68.9365 56.3802 71.4865 57.7155C75.4639 59.7988 78.2821 62.9118 79.1548 67.4972C79.4545 69.0695 78.9577 69.7227 77.3278 69.7227C57.1829 69.7306 37.0379 69.7306 16.893 69.7227C15.2737 69.7227 14.5901 68.8614 14.9188 67.2443C15.6075 63.8626 17.3531 61.0551 20.2317 59.2378C22.8421 57.5891 25.7023 56.3302 28.4915 54.9817C30.5762 53.973 32.7687 53.1828 34.8323 52.1346C37.4875 50.7888 39.1857 48.7556 38.8124 45.524C38.7835 45.2659 38.8177 44.9972 38.8229 44.7339C38.8492 42.7954 38.8676 41.0466 37.4007 39.2873C36.1284 37.7624 35.7761 35.4763 34.9717 33.5458C34.7929 33.1165 34.5064 32.6424 34.1331 32.4001C31.9406 30.9858 31.0994 26.943 32.5216 24.7202C32.7739 24.3251 32.9185 23.664 32.7739 23.24C29.317 13.0396 34.5248 3.919 45.0744 1.81992C46.4861 1.53811 47.9398 1.48017 49.3699 1.29054C50.1402 1.18782 50.6475 1.44329 50.8394 2.21497C51.289 4.02171 52.3353 4.79603 54.2832 5.0436C57.0435 5.39388 59.0546 7.22169 60.3059 9.68159C62.6745 14.3459 62.9848 19.1367 60.8948 24.0565Z" fill="white"/>
<path d="M64.8618 10.6561C66.5285 10.5402 68.2162 10.3532 69.9039 10.3637C70.2404 10.3664 70.7031 11.0748 70.8766 11.5436C71.242 12.5392 71.7336 13.0396 72.9061 13.1608C75.1353 13.3873 76.8099 14.6962 77.8667 16.6531C79.7332 20.1112 79.9908 23.7273 78.7448 27.4645C78.6291 27.8148 78.5923 28.3073 78.7474 28.6155C79.8147 30.7172 79.1995 33.4299 77.2989 34.9548C77.0386 35.1629 76.9519 35.5948 76.7994 35.932C75.9923 37.7071 75.2957 39.5454 74.3519 41.2468C73.5449 42.7006 74.1206 46.4616 75.7321 47.5915C76.9676 48.458 78.3925 49.0822 79.7884 49.6905C81.831 50.5834 83.9814 51.2392 85.9767 52.2216C90.0357 54.2232 91.8601 57.676 91.9258 62.1296C91.9495 63.6967 91.379 64.2972 89.8175 64.3209C87.4962 64.3525 85.1749 64.3657 82.8563 64.2972C82.4593 64.284 81.8705 63.9021 81.7206 63.5439C79.8962 59.2404 76.6574 56.3144 72.6116 54.2653C69.8855 52.8853 67.0017 51.816 64.2124 50.5597C62.8191 49.9328 61.46 49.227 60.114 48.5027C59.1992 48.0076 58.6971 47.2254 58.8233 46.1245C58.8522 45.8664 58.8312 45.5977 58.8049 45.337C58.6445 43.6856 58.7497 42.108 59.9668 40.807C60.1114 40.6516 60.1929 40.433 60.2876 40.2355C61.5389 37.6228 62.48 34.9074 64.1651 32.4475C65.7898 30.0772 66.1184 27.13 65.1457 24.2277C65.0405 23.9169 64.9958 23.5245 65.0826 23.2163C66.1972 19.2104 66.0001 15.2361 64.8696 11.275C64.8328 11.1486 64.8618 11.0116 64.8618 10.6561Z" fill="white"/>
<path d="M29.1672 10.2847C28.8307 11.9308 28.5205 13.2503 28.2944 14.583C27.8422 17.2694 28.1708 19.911 28.8044 22.5395C28.9358 23.0873 28.8806 23.7352 28.7308 24.2883C27.6819 28.1388 28.3522 31.5652 31.0652 34.5545C31.4017 34.9259 31.6435 35.3973 31.8644 35.8529C32.8712 37.9336 33.928 39.9932 34.8087 42.1238C35.1557 42.9614 35.0689 43.9727 35.2162 44.8998C35.5921 47.257 34.3802 48.5896 32.3586 49.4298C30.0557 50.3885 27.7581 51.363 25.4578 52.3269C21.717 53.894 18.0813 55.6717 15.3867 58.8164C14.2326 60.1622 13.3362 61.7504 12.4687 63.3095C12.0796 64.0075 11.7589 64.3709 10.915 64.3499C8.68311 64.2893 6.44595 64.3525 4.21143 64.3183C2.61834 64.2946 2.00844 63.6151 2.08205 62.0032C2.24504 58.3634 3.86967 55.4663 6.91126 53.5569C9.12213 52.1689 11.5591 51.1365 13.904 49.9618C15.271 49.2744 16.7169 48.7187 18.0129 47.9207C20.229 46.559 20.6944 43.0983 19.3326 40.886C18.4072 39.3821 17.8946 37.6228 17.1796 35.9873C17.0166 35.6159 16.8694 35.1603 16.5697 34.9417C14.8267 33.6591 14.1327 30.7172 15.1264 28.7998C15.3183 28.4285 15.4472 27.8728 15.3131 27.5067C12.7131 20.4061 16.5854 12.5734 25.5525 10.743C26.6908 10.5086 27.8632 10.4454 29.1672 10.2847Z" fill="white"/>
</svg>
