<svg width="55" height="69" viewBox="0 0 55 69" fill="none" xmlns="http://www.w3.org/2000/svg">
<path d="M55 26.0553C54.7124 30.5225 54.8653 35.077 54.0389 39.4422C52.4479 47.8522 47.3108 54.2962 40.9724 59.6845C37.2516 62.8482 33.0721 65.4877 28.9909 68.1964C28.2591 68.6843 26.77 68.7789 26.0091 68.3602C17.7229 63.8021 10.4961 57.9733 5.19524 50.022C1.71474 44.7976 -0.131097 39.0708 0.00724951 32.7178C0.123752 27.3223 0.0655007 21.9195 0.00724951 16.5203C-0.00731328 15.0459 0.502385 14.183 1.87857 13.5932C10.3541 9.94887 18.6549 5.99143 26.0237 0.308303C26.6062 -0.139503 28.1571 -0.084892 28.7688 0.377477C36.0756 5.92954 44.2599 9.85057 52.6335 13.4294C54.1226 14.0665 54.807 14.9221 54.7597 16.5749C54.6687 19.7278 54.7342 22.8843 54.7342 26.0371C54.8216 26.0444 54.9126 26.048 55 26.0553ZM43.0731 32.7105C43.1131 24.0129 36.0939 16.899 27.4399 16.8662C18.8624 16.8334 11.7667 23.8381 11.6939 32.4156C11.6174 41.2188 18.6804 48.3728 27.4144 48.34C36.0247 48.3109 43.033 41.3135 43.0731 32.7105Z" fill="white"/>
<path d="M24.5892 35.3792C22.9218 35.3792 21.4801 35.4119 20.0384 35.3719C18.2253 35.3173 17.0894 34.2251 17.0894 32.6159C17.0894 30.9848 18.1925 29.9327 20.0347 29.8853C21.4728 29.8489 22.9145 29.8781 24.5856 29.8781C24.5856 28.8623 24.5856 28.0359 24.5856 27.2094C24.5856 23.627 25.3793 22.2508 27.4253 22.2836C29.4423 22.3163 30.1704 23.6488 30.1741 27.3004C30.1741 28.0796 30.1741 28.855 30.1741 29.8744C31.7723 29.8744 33.2068 29.8489 34.6376 29.8817C36.5307 29.9217 37.6229 30.8975 37.6666 32.5285C37.7103 34.2178 36.5526 35.3282 34.6303 35.3755C33.2468 35.4083 31.8597 35.3828 30.1741 35.3828C30.1741 36.5951 30.1777 37.7165 30.1741 38.8342C30.1668 41.5501 29.2457 42.93 27.4253 42.9627C25.5868 42.9955 24.6001 41.5902 24.5892 38.9216C24.5856 37.833 24.5892 36.7481 24.5892 35.3792Z" fill="white"/>
</svg>
