<svg width="40" height="40" viewBox="0 0 40 40" fill="none" xmlns="http://www.w3.org/2000/svg">
<path d="M21.7134 3.33506C22.9296 3.33039 24.1458 3.34261 25.3617 3.37173L25.685 3.38339C26.0584 3.39673 26.4267 3.41339 26.8717 3.43339C28.645 3.51673 29.855 3.79673 30.9167 4.20839C32.0167 4.63173 32.9434 5.20506 33.87 6.13173C34.7173 6.9644 35.3731 7.97164 35.7917 9.08339C36.2034 10.1451 36.4834 11.3567 36.5667 13.1301C36.5867 13.5734 36.6034 13.9434 36.6167 14.3167L36.6267 14.6401C36.6563 15.8554 36.6691 17.0711 36.665 18.2867L36.6667 19.5301V21.7134C36.6708 22.9296 36.658 24.1459 36.6284 25.3617L36.6184 25.6851C36.605 26.0584 36.5884 26.4267 36.5684 26.8717C36.485 28.6451 36.2017 29.8551 35.7917 30.9167C35.3744 32.0297 34.7185 33.0377 33.87 33.8701C33.0366 34.7173 32.0289 35.373 30.9167 35.7917C29.855 36.2034 28.645 36.4834 26.8717 36.5667C26.4267 36.5867 26.0584 36.6034 25.685 36.6167L25.3617 36.6267C24.1458 36.6564 22.9296 36.6691 21.7134 36.6651L20.47 36.6667H18.2884C17.0721 36.6708 15.8559 36.6581 14.64 36.6284L14.3167 36.6184C13.921 36.6041 13.5255 36.5874 13.13 36.5684C11.3567 36.4851 10.1467 36.2017 9.08336 35.7917C7.97117 35.374 6.96376 34.7181 6.13169 33.8701C5.28343 33.0372 4.62707 32.0293 4.20836 30.9167C3.79669 29.8551 3.51669 28.6451 3.43336 26.8717C3.4148 26.4763 3.39813 26.0807 3.38336 25.6851L3.37503 25.3617C3.3443 24.1459 3.33041 22.9296 3.33336 21.7134V18.2867C3.32871 17.0711 3.34093 15.8554 3.37003 14.6401L3.38169 14.3167C3.39503 13.9434 3.41169 13.5734 3.43169 13.1301C3.51503 11.3551 3.79503 10.1467 4.20669 9.08339C4.62565 7.97109 5.2833 6.96413 6.13336 6.13339C6.96485 5.28465 7.97163 4.62768 9.08336 4.20839C10.1467 3.79673 11.355 3.51673 13.13 3.43339L14.3167 3.38339L14.64 3.37506C15.8553 3.34435 17.071 3.33046 18.2867 3.33339L21.7134 3.33506ZM20 11.6684C18.8959 11.6528 17.7996 11.8568 16.775 12.2685C15.7504 12.6802 14.8178 13.2915 14.0314 14.0668C13.2451 14.8421 12.6207 15.766 12.1945 16.7847C11.7683 17.8034 11.5488 18.8966 11.5488 20.0009C11.5488 21.1052 11.7683 22.1984 12.1945 23.2171C12.6207 24.2358 13.2451 25.1597 14.0314 25.935C14.8178 26.7103 15.7504 27.3215 16.775 27.7333C17.7996 28.145 18.8959 28.349 20 28.3334C22.2102 28.3334 24.3298 27.4554 25.8926 25.8926C27.4554 24.3298 28.3334 22.2102 28.3334 20.0001C28.3334 17.7899 27.4554 15.6703 25.8926 14.1075C24.3298 12.5447 22.2102 11.6684 20 11.6684ZM20 15.0017C20.6642 14.9895 21.3242 15.1097 21.9414 15.3554C22.5585 15.6011 23.1206 15.9673 23.5947 16.4326C24.0687 16.898 24.4453 17.4531 24.7024 18.0656C24.9595 18.6781 25.092 19.3358 25.0921 20C25.0922 20.6643 24.96 21.322 24.7031 21.9346C24.4462 22.5472 24.0698 23.1025 23.5958 23.568C23.1219 24.0335 22.56 24.3998 21.9429 24.6457C21.3258 24.8916 20.6659 25.0121 20.0017 25.0001C18.6756 25.0001 17.4038 24.4733 16.4662 23.5356C15.5285 22.5979 15.0017 21.3261 15.0017 20.0001C15.0017 18.674 15.5285 17.4022 16.4662 16.4645C17.4038 15.5268 18.6756 15.0001 20.0017 15.0001L20 15.0017ZM28.75 9.16839C28.2123 9.18991 27.7039 9.41864 27.331 9.80668C26.9582 10.1947 26.75 10.7119 26.75 11.2501C26.75 11.7882 26.9582 12.3054 27.331 12.6934C27.7039 13.0815 28.2123 13.3102 28.75 13.3317C29.3026 13.3317 29.8325 13.1122 30.2232 12.7215C30.6139 12.3308 30.8334 11.8009 30.8334 11.2484C30.8334 10.6959 30.6139 10.166 30.2232 9.77525C29.8325 9.38455 29.3026 9.16506 28.75 9.16506V9.16839Z" fill="white"/>
</svg>
