<svg width="21" height="13" viewBox="0 0 21 13" fill="none" xmlns="http://www.w3.org/2000/svg">
<path d="M11.1708 11.4292C11.025 11.2938 10.9521 11.1334 10.9521 10.9482C10.9521 10.7629 11.025 10.6028 11.1708 10.4677L15.4438 6.50002L11.1563 2.51877C11.0201 2.39238 10.9521 2.2344 10.9521 2.04481C10.9521 1.85523 11.025 1.69273 11.1708 1.55731C11.3167 1.4219 11.4893 1.35419 11.6888 1.35419C11.8883 1.35419 12.0608 1.4219 12.2063 1.55731L17.1063 6.12085C17.1646 6.17502 17.206 6.2337 17.2305 6.29689C17.255 6.36009 17.2671 6.4278 17.2667 6.50002C17.2667 6.57224 17.2544 6.63995 17.2299 6.70314C17.2054 6.76634 17.1642 6.82502 17.1063 6.87919L12.1917 11.4427C12.0556 11.5691 11.8878 11.6323 11.6883 11.6323C11.4888 11.6323 11.3163 11.5646 11.1708 11.4292Z" fill="white"/>
<path d="M1 7H12" stroke="white" stroke-width="2" stroke-linecap="round"/>
</svg>
