<svg width="24" height="24" viewBox="0 0 24 24" fill="none" xmlns="http://www.w3.org/2000/svg">
<path d="M3 4.05C3 3.88333 3.00433 3.70833 3.013 3.525C3.02167 3.34167 3.034 3.16667 3.05 3L8.9 3L9.9 8L7 10.9C7.76667 12.1667 8.675 13.3293 9.725 14.388C10.775 15.4467 11.9 16.3257 13.1 17.025L15.975 14.175L21 15.1L21 20.95C20.8333 20.9833 20.6583 21 20.475 21L19.95 21C17.8 21 15.704 20.521 13.662 19.563C11.62 18.605 9.80767 17.3383 8.225 15.763C6.64167 14.1877 5.375 12.3793 4.425 10.338C3.475 8.29667 3 6.20067 3 4.05Z" fill="white"/>
</svg>
